{"title":"Killer Elite 2011 READNFO HDRip XViD AC3 DTRG","uid":6787363,"size":1890606255,"categoryP":"video","categoryS":"movies","magnet":"?xt=urn:btih:d8c3ce2eda9ea044471f0f63f524e8729d2bb764&amp;dn=Killer+Elite+2011+READNFO+HDRip+XViD+AC3+DTRG&amp;tr=udp%3A%2F%2Ftracker.openbittorrent.com%3A80&amp;tr=udp%3A%2F%2Fopen.demonii.com%3A1337&amp;tr=udp%3A%2F%2Ftracker.coppersurfer.tk%3A6969&amp;tr=udp%3A%2F%2Fexodus.desync.com%3A6969","seeders":0,"leechers":0,"uploader":"SAFCukO09","files":4,"time":1320144640,"description":"Format : AVI\nFormat/Info : Audio Video Interleave\nFile size : 1.75 GiB\nDuration : 1h 56mn\nOverall bit rate : 2 153 Kbps\nWriting application : VirtualDubMod 1.5.10.2 (build 2540/release)\nWriting library : VirtualDubMod build 2540/release\n\nVideo\nID : 0\nFormat : MPEG-4 Visual\nFormat profile : Advanced Simple@L5\nFormat settings, BVOP : 2\nFormat settings, QPel : No\nFormat settings, GMC : No warppoints\nFormat settings, Matrix : Default (H.263)\nMuxing mode : Packed bitstream\nCodec ID : XVID\nCodec ID/Hint : XviD\nDuration : 1h 56mn\nBit rate : 1 951 Kbps\nWidth : 720 pixels\nHeight : 246 pixels\nDisplay aspect ratio : 2.927\nFrame rate : 23.976 fps\nColor space : YUV\nChroma subsampling : 4:2:0\nBit depth : 8 bits\nScan type : Progressive\nCompression mode : Lossy\nBits/(Pixel*Frame) : 0.459\nStream size : 1.59 GiB (91%)\nWriting library : XviD 64\n\nAudio\nID : 1\nFormat : AC-3\nFormat/Info : Audio Coding 3\nMode extension : CM (complete main)\nCodec ID : 2000\nDuration : 1h 56mn\nBit rate mode : Constant\nBit rate : 192 Kbps\nChannel(s) : 2 channels\nChannel positions : Front: L R\nSampling rate : 48.0 KHz\nBit depth : 16 bits\nCompression mode : Lossy\nStream size : 160 MiB (9%)\nAlignment : Split accross interleaves\nInterleave, duration : 42 ms (1.00 video frame)\nInterleave, preload duration : 500 ms\n\n\n\n\n\n\n\n\n &lt;a href=&quot;\nhttp://www.imdb.com/title/tt1448755/&quot; rel=&quot;nofollow&quot; target=&quot;_NEW&quot;&gt;\nhttp://www.imdb.com/title/tt1448755/&lt;/a&gt;\n\n\n\nPlot or Synopsis\nBased on a true story, Killer Elite pits two of the worlds' most elite operatives - Danny, an ex-special ops agent (Jason Statham) and Hunter, his longtime mentor (Robert De Niro) - against the cunning leader of a secret military society ('Clive Owen' ).\nCovering the globe from Australia to Paris, London and the Middle East, Danny and Hunter are plunged into a highly dangerous game of cat and mouse - where the predators become the prey.\n","torrent":{"xt":"urn:btih:d8c3ce2eda9ea044471f0f63f524e8729d2bb764","amp;dn":"Killer+Elite+2011+READNFO+HDRip+XViD+AC3+DTRG","amp;tr":["udp%3A%2F%2Ftracker.openbittorrent.com%3A80","udp%3A%2F%2Fopen.demonii.com%3A1337","udp%3A%2F%2Ftracker.coppersurfer.tk%3A6969","udp%3A%2F%2Fexodus.desync.com%3A6969"],"infoHash":"d8c3ce2eda9ea044471f0f63f524e8729d2bb764","infoHashBuffer":{"type":"Buffer","data":[216,195,206,46,218,158,160,68,71,31,15,99,245,36,232,114,157,43,183,100]},"announce":[],"urlList":[]}}